<?xml version="1.0" encoding="utf-8"?>
<!-- Generator: Adobe Illustrator 18.0.0, SVG Export Plug-In . SVG Version: 6.00 Build 0)  -->
<!DOCTYPE svg PUBLIC "-//W3C//DTD SVG 1.1//EN" "http://www.w3.org/Graphics/SVG/1.1/DTD/svg11.dtd">
<svg version="1.1" id="Calque_1" xmlns="http://www.w3.org/2000/svg" xmlns:xlink="http://www.w3.org/1999/xlink" x="0px" y="0px"
	 viewBox="0 0 402.3 255.3" enable-background="new 0 0 402.3 255.3" xml:space="preserve">
<line fill="#222223" x1="-54.7" y1="512.9" x2="-54.7" y2="-329"/>
<g>
	<polygon fill="#1BA6D3" points="190.2,126.4 98.9,126.4 144.5,205.4 136.4,219.6 86.6,133.5 29.1,233.1 12.8,233.1 147.4,0 
		163.7,0.1 98.9,112.2 198.4,112.2 	"/>
	<polygon fill="#FFFFFF" points="218.2,126.3 210.1,140.5 201.9,126.4 201.9,126.4 210,112.2 210.1,112.2 	"/>
	<polygon fill="#E62E59" points="210.1,140.5 156.6,233.1 140.3,233.1 201.9,126.4 201.9,126.4 	"/>
	<polygon fill="#E62E59" points="210.1,167.5 212,167.5 210.1,170.9 	"/>
	<line fill="#E62E59" x1="263.8" y1="233.1" x2="260.3" y2="233.1"/>
	<line fill="#E62E59" x1="263.8" y1="233.1" x2="260.3" y2="233.1"/>
	<g>
		<polygon fill="#E62E59" points="311.1,126.3 311,126.4 294.9,154.4 287.3,167.5 286.7,168.5 279.1,181.7 237,181.7 249.9,203.9 
			252.1,207.7 258.1,218.1 260.2,221.9 266.7,233.1 250.3,233.1 249.9,232.3 249.9,232.3 243.9,221.9 241.7,218.1 220.6,181.7 
			220.4,181.3 227.8,168.5 228.4,167.5 270.9,167.5 278.5,154.4 286.7,140.2 294.7,126.4 247.4,126.4 231.2,154.4 223.7,167.5 
			223.1,168.5 215.5,181.7 185.8,233.1 169.4,233.1 214.9,154.4 223.1,140.2 239.2,112.2 303,112.2 		"/>
	</g>
	<g>
		<path fill="none" stroke="#000000" stroke-width="19" stroke-miterlimit="10" d="M368.4,233.1"/>
		<polygon fill="#E62E59" points="402.3,112.2 394.1,126.4 338.4,126.4 306.5,181.7 290.2,181.7 330.3,112.2 		"/>
		<polygon fill="#1BA6D3" points="388.9,163.6 348.8,233.1 276.8,233.1 285,218.9 340.7,218.9 372.6,163.6 		"/>
	</g>
	<polyline fill="#FFFFFF" points="394.1,255.3 0,255.3 8.2,241.1 402.3,241.1 	"/>
</g>
</svg>
