<svg width="160" height="24" viewBox="0 0 160 24" fill="none" xmlns="http://www.w3.org/2000/svg">
<g clip-path="url(#clip0_144_206)">
<path fill-rule="evenodd" clip-rule="evenodd" d="M104.669 6.90619V7.59299C104.669 9.08107 105.875 10.3021 107.345 10.3021C108.815 10.3021 110.021 9.08107 110.021 7.59299V6.90619H104.669Z" fill="white"/>
<path d="M148.918 21.0239C146.808 21.0239 145.112 20.5278 143.83 19.5739C142.549 18.5819 141.908 17.1701 141.908 15.3005C141.908 13.4309 142.549 11.9809 143.83 11.027C145.112 10.035 146.808 9.57712 148.918 9.57712C151.029 9.57712 152.725 10.0731 153.969 11.027C155.213 12.0191 155.854 13.4309 155.854 15.3005C155.854 17.1701 155.213 18.5819 153.969 19.5739C152.725 20.566 151.029 21.0239 148.918 21.0239ZM148.918 24C151.105 24 152.989 23.6566 154.572 22.9698C156.155 22.283 157.361 21.291 158.153 19.9555C158.982 18.6582 159.397 17.0938 159.397 15.2623C159.397 13.4309 158.982 11.8665 158.153 10.5692C157.324 9.27188 156.118 8.24167 154.572 7.55486C153.027 6.86806 151.142 6.52466 148.918 6.52466C146.732 6.52466 144.848 6.86806 143.265 7.55486C141.682 8.24167 140.476 9.23372 139.684 10.5692C138.855 11.8665 138.44 13.4309 138.44 15.2623C138.44 17.0938 138.855 18.62 139.684 19.9555C140.513 21.2528 141.719 22.2449 143.265 22.9698C144.848 23.6566 146.732 24 148.918 24ZM124.871 24C127.661 24 129.847 23.4658 131.505 22.3593C133.126 21.2528 134.068 19.6884 134.294 17.628H130.902C130.525 18.7345 129.847 19.5739 128.829 20.1463C127.811 20.7568 126.492 21.0239 124.871 21.0239C122.723 21.0239 121.027 20.5278 119.745 19.5358C118.464 18.5437 117.861 17.132 117.861 15.3005C117.861 13.469 118.502 12.0191 119.745 11.027C121.027 10.035 122.723 9.53897 124.871 9.53897C126.53 9.53897 127.849 9.84421 128.867 10.4547C129.884 11.0652 130.563 11.9428 130.902 13.0493H134.294C134.068 11.027 133.126 9.4245 131.505 8.27983C129.884 7.13515 127.661 6.56281 124.871 6.56281C122.761 6.56281 120.914 6.90622 119.368 7.55486C117.785 8.20351 116.542 9.19556 115.675 10.531C114.808 11.8283 114.355 13.4309 114.355 15.3386C114.355 17.2083 114.808 18.8108 115.675 20.1081C116.542 21.4054 117.785 22.3975 119.368 23.0461C120.914 23.6948 122.761 24 124.871 24ZM109.079 23.6948V11.9428H105.686V23.6948H109.079ZM100.636 23.6948V20.8331H89.6299V6.90622H86.2377V23.6948H100.636ZM81.2624 23.6948V20.8331H68.485V16.6741H80.2824V13.965H68.485V9.7679H81.2247V6.90622H65.0551V23.6948H81.2624ZM54.0869 15.4913H46.9255V9.84421H54.0869C54.9915 9.84421 55.7076 10.0731 56.2353 10.5692C56.763 11.0652 57.0268 11.752 57.0268 12.6677C57.0268 13.5453 56.763 14.2321 56.2353 14.7282C55.7076 15.2242 54.9915 15.4913 54.0869 15.4913ZM46.9255 23.6948V18.2385H53.7854C55.783 18.2385 57.4037 17.7806 58.6099 16.903C59.816 15.9873 60.4567 14.6137 60.4567 12.7059C60.4567 10.76 59.8537 9.31003 58.6099 8.35614C57.366 7.40224 55.783 6.90622 53.7854 6.90622H43.4956V23.6948H46.9255Z" fill="white"/>
<path fill-rule="evenodd" clip-rule="evenodd" d="M10.5913 6.86804H34.0354C35.2792 6.86804 35.8069 8.27981 34.94 9.15739L21.1072 22.0922C17.0742 25.8315 10.5913 22.9698 10.5913 17.4372V6.86804Z" fill="white"/>
<path fill-rule="evenodd" clip-rule="evenodd" d="M10.5913 17.0175C16.1319 16.9793 20.6549 12.4769 20.768 6.86804H10.5913V17.0175Z" fill="#005161"/>
<path fill-rule="evenodd" clip-rule="evenodd" d="M1.09298 6.86805C0.64068 6.86805 0.527605 6.86805 0.226074 6.86805V5.60891C0.263766 2.74722 2.56294 0.381561 5.42749 0.381561C8.29203 0.381561 10.5912 2.70907 10.5912 5.60891V6.86805H1.09298Z" fill="#005161"/>
</g>
<defs>
<clipPath id="clip0_144_206">
<rect width="160" height="24" fill="white"/>
</clipPath>
</defs>
</svg>
